<?xml version="1.0" encoding="UTF-8"?>
<svg width="800px" height="800px" viewBox="0 0 800 800" version="1.1" xmlns="http://www.w3.org/2000/svg" xmlns:xlink="http://www.w3.org/1999/xlink">
    <title>Indian National Emblem</title>
    <g id="emblem" stroke="none" stroke-width="1" fill="none" fill-rule="evenodd">
        <path d="M400,50 C470,50 530,80 570,130 C610,180 630,250 630,330 C630,410 610,480 570,530 C530,580 470,610 400,610 C330,610 270,580 230,530 C190,480 170,410 170,330 C170,250 190,180 230,130 C270,80 330,50 400,50 Z" id="base" fill="#000080"></path>
        <path d="M400,100 C450,100 490,120 520,160 C550,200 565,250 565,310 C565,370 550,420 520,460 C490,500 450,520 400,520 C350,520 310,500 280,460 C250,420 235,370 235,310 C235,250 250,200 280,160 C310,120 350,100 400,100 Z" id="inner-circle" fill="#FFFFFF"></path>
        <path d="M400,150 C440,150 470,165 490,195 C510,225 520,265 520,310 C520,355 510,395 490,425 C470,455 440,470 400,470 C360,470 330,455 310,425 C290,395 280,355 280,310 C280,265 290,225 310,195 C330,165 360,150 400,150 Z" id="center-circle" fill="#000080"></path>
        <path d="M395,250 L395,370 L385,370 L385,250 L395,250 Z M415,250 L415,370 L405,370 L405,250 L415,250 Z" id="pillar" fill="#FFFFFF"></path>
        <path d="M370,250 C350,250 335,255 325,265 C315,275 310,290 310,310 C310,330 315,345 325,355 C335,365 350,370 370,370 L370,360 C355,360 345,355 337.5,347.5 C330,340 326,327 326,310 C326,293 330,280 337.5,272.5 C345,265 355,260 370,260 L370,250 Z" id="left-lion" fill="#FFFFFF"></path>
        <path d="M430,250 C450,250 465,255 475,265 C485,275 490,290 490,310 C490,330 485,345 475,355 C465,365 450,370 430,370 L430,360 C445,360 455,355 462.5,347.5 C470,340 474,327 474,310 C474,293 470,280 462.5,272.5 C455,265 445,260 430,260 L430,250 Z" id="right-lion" fill="#FFFFFF"></path>
        <path d="M400,200 C410,200 418,203 424,209 C430,215 433,223 433,233 C433,243 430,251 424,257 C418,263 410,266 400,266 C390,266 382,263 376,257 C370,251 367,243 367,233 C367,223 370,215 376,209 C382,203 390,200 400,200 Z" id="chakra" fill="#FFFFFF"></path>
        <path d="M400,210 C393,210 387,212 383,216 C379,220 377,226 377,233 C377,240 379,246 383,250 C387,254 393,256 400,256 C407,256 413,254 417,250 C421,246 423,240 423,233 C423,226 421,220 417,216 C413,212 407,210 400,210 Z M400,215 C405,215 410,217 413,220 C416,223 418,228 418,233 C418,238 416,243 413,246 C410,249 405,251 400,251 C395,251 390,249 387,246 C384,243 382,238 382,233 C382,228 384,223 387,220 C390,217 395,215 400,215 Z" id="chakra-detail" fill="#FFFFFF"></path>
        <path d="M400,580 L400,750 M350,600 L350,750 M450,600 L450,750" id="pillars" stroke="#000080" stroke-width="15"></path>
        <path d="M300,750 L500,750" id="base-line" stroke="#000080" stroke-width="15"></path>
        <path d="M325,630 C325,610 335,595 350,585 C365,575 385,570 410,570 C435,570 455,575 470,585 C485,595 495,610 495,630" id="base-arch" stroke="#000080" stroke-width="15" fill="#FFFFFF"></path>
        <text id="Satyameva-Jayate" font-family="Arial-BoldMT, Arial" font-size="30" font-weight="bold" fill="#000080">
            <tspan x="300" y="790">सत्यमेव जयते</tspan>
        </text>
    </g>
</svg>
